<?xml version="1.0" encoding="UTF-8"?>
<!-- Generator: Adobe Illustrator 28.2.0, SVG Export Plug-In . SVG Version: 6.00 Build 0)  -->
<svg xmlns="http://www.w3.org/2000/svg" xmlns:xlink="http://www.w3.org/1999/xlink" version="1.1" id="Layer_1" x="0px" y="0px" viewBox="0 0 64 64" style="enable-background:new 0 0 64 64;" xml:space="preserve">
<style type="text/css">
	.st0{fill:#EFCB68;}
</style>
<g>
	<path class="st0" d="M12,27.9h22.4c0.5,0,0.9-0.4,1-0.9c0.1-2.1-0.1-3.1-0.5-4.2c-1-3-3.1-3.6-5.1-4.3c-0.9-0.3-1.9-0.6-2.8-1.2   c1.3-1.6,2-3.7,2-5.9c0-3.8-2.2-6.1-5.9-6.1s-5.9,2.3-5.9,6.1c0,2.1,0.8,4.3,2,5.9c-0.9,0.5-1.8,0.9-2.8,1.2   c-2,0.7-4.1,1.4-5.1,4.4c-0.3,1.1-0.6,2-0.4,4.1C11,27.5,11.5,27.9,12,27.9z M19.2,11.4c0-2.8,1.3-4.2,4-4.2s4,1.4,4,4.2   c0,2-0.9,4.1-2.2,5.3c-1.2,1-2.4,1-3.5,0C20.1,15.5,19.2,13.5,19.2,11.4z M13.3,23.4c0.7-2,2-2.5,3.9-3.1c1.1-0.4,2.4-0.8,3.6-1.6   c0.8,0.5,1.6,0.8,2.4,0.8s1.6-0.3,2.4-0.8c1.2,0.9,2.5,1.3,3.6,1.6c1.9,0.6,3.2,1.1,3.9,3.1c0.2,0.7,0.4,1.4,0.4,2.6H12.9   C12.9,24.8,13.1,24.1,13.3,23.4z"></path>
	<path class="st0" d="M7.9,35.1h30.5c0.5,0,1-0.4,1-1s-0.4-1-1-1H7.9c-0.5,0-1,0.4-1,1S7.4,35.1,7.9,35.1z"></path>
	<path class="st0" d="M7.9,43h30.5c0.5,0,1-0.4,1-1s-0.4-1-1-1H7.9c-0.5,0-1,0.4-1,1S7.4,43,7.9,43z"></path>
	<path class="st0" d="M28.8,48.9H7.9c-0.5,0-1,0.4-1,1s0.4,1,1,1h20.9c0.5,0,1-0.4,1-1S29.3,48.9,28.8,48.9z"></path>
	<path class="st0" d="M28.8,56.8H7.9c-0.5,0-1,0.4-1,1s0.4,1,1,1h20.9c0.5,0,1-0.4,1-1C29.8,57.2,29.3,56.8,28.8,56.8z"></path>
	<path class="st0" d="M62.3,28c-0.9-0.9-2.1-1.3-3.4-1.3c-1.3,0.1-2.5,0.6-3.4,1.6L54,29.8l-8,8V10.7c0-0.1,0-0.2-0.1-0.4   c0-0.1-0.1-0.2-0.2-0.3L36,0.3c-0.1-0.1-0.2-0.2-0.3-0.2C35.6,0,35.5,0,35.3,0h-32C1.7,0,0.4,1.3,0.4,2.9v58.2   c0,1.6,1.3,2.9,2.9,2.9h39.7c1.6,0,2.9-1.3,2.9-2.9V50.8l16-16c0.9-0.9,1.5-2.2,1.6-3.4C63.6,30.1,63.2,28.9,62.3,28z M36.3,3.3   l6.4,6.4h-6.4V3.3z M44.1,61.1c0,0.5-0.4,1-1,1H3.3c-0.5,0-1-0.4-1-1V2.9c0-0.5,0.4-1,1-1h31v8.7c0,0.5,0.4,1,1,1H44v28.1l-8.7,8.7   c-0.1,0.1-0.2,0.2-0.2,0.3v0l-3.2,8.3c-0.1,0.4,0,0.8,0.2,1c0.2,0.2,0.4,0.3,0.7,0.3c0.1,0,0.2,0,0.3-0.1l8.3-3.2h0   c0.1,0,0.2-0.1,0.3-0.2l2.2-2.2L44.1,61.1L44.1,61.1z M36.4,50.9l3,3l-4.9,1.9L36.4,50.9z M44.4,49.7   C44.3,49.7,44.3,49.7,44.4,49.7l-3.2,3.2l-3.8-3.8l8.3-8.3l8.9-8.9l3.8,3.8L44.4,49.7z M60.6,33.4l-0.8,0.8L56,30.5l0.8-0.9   c0.6-0.6,1.4-1,2.2-1c0.7,0,1.4,0.2,1.9,0.7s0.7,1.2,0.7,1.9C61.6,32,61.2,32.8,60.6,33.4z"></path>
</g>
</svg>
