<?xml version="1.0" encoding="UTF-8"?>
<!-- Generator: Adobe Illustrator 28.2.0, SVG Export Plug-In . SVG Version: 6.00 Build 0)  -->
<svg xmlns="http://www.w3.org/2000/svg" xmlns:xlink="http://www.w3.org/1999/xlink" version="1.1" id="_x3C_Layer_x3E_" x="0px" y="0px" viewBox="0 0 512 512" style="enable-background:new 0 0 512 512;" xml:space="preserve">
<style type="text/css">
	.st0{fill:#EFCB68;}
</style>
<g id="persons_x2C__team_x2C__group_x2C__doctors_x2C__brigade_1_">
	<g id="XMLID_98_">
		<g id="XMLID_127_">
			<path class="st0" d="M360,448c-4.4,0-8-3.6-8-8v-96c0-1.6,0.5-3.1,1.3-4.4l15.6-23.4c2.4-3.7,7.4-4.7,11.1-2.2     c3.7,2.4,4.7,7.4,2.2,11.1L368,346.4V440C368,444.4,364.4,448,360,448L360,448z"></path>
		</g>
		<g id="XMLID_126_">
			<path class="st0" d="M152,448c-4.4,0-8-3.6-8-8v-93.6l-14-21.1c-2.4-3.7-1.4-8.7,2.2-11.1c3.7-2.5,8.7-1.4,11.1,2.2l15.3,23.1     c0.9,1.3,1.3,2.8,1.3,4.4v96C160,444.4,156.4,448,152,448L152,448z"></path>
		</g>
		<g id="XMLID_125_">
			<path class="st0" d="M256,448c-4.4,0-8-3.6-8-8V280c0-4.4,3.6-8,8-8c4.4,0,8,3.6,8,8v160C264,444.4,260.4,448,256,448z"></path>
		</g>
		<g id="XMLID_124_">
			<path class="st0" d="M472,480H40c-4.4,0-8-3.6-8-8s3.6-8,8-8h432c4.4,0,8,3.6,8,8S476.4,480,472,480z"></path>
		</g>
		<g id="XMLID_120_">
			<g id="XMLID_123_">
				<path class="st0" d="M104,480c-4.4,0-8-3.6-8-8V331.7c0-28.2,21.6-58.7,48.2-68l65.8-23l4.3-34.7c0.6-4.4,4.5-7.4,8.9-6.9      c4.4,0.5,7.5,4.5,6.9,8.9l-5,39.6c-0.4,3-2.4,5.6-5.3,6.6l-70.5,24.7c-20.3,7.1-37.5,31.3-37.5,52.8V472      C112,476.4,108.4,480,104,480L104,480z"></path>
			</g>
			<g id="XMLID_122_">
				<path class="st0" d="M408,480c-4.4,0-8-3.6-8-8V331.7c0-21.5-17.2-45.7-37.5-52.9L292,254.2c-2.9-1-4.9-3.6-5.3-6.6l-5-39.7      c-0.5-4.4,2.6-8.4,6.9-8.9c4.4-0.5,8.4,2.6,8.9,6.9l4.4,34.8l65.8,23c26.6,9.3,48.2,39.8,48.2,68V472      C416,476.4,412.4,480,408,480L408,480z"></path>
			</g>
			<g id="XMLID_121_">
				<path class="st0" d="M256,224.6c-4.4,0-8-3.6-8-8s3.6-8,8-8c17.8,0,51.1,0,51.2-87.5c0-15.3-1.1-30.3-14.9-44.2      c-8.2-8.2-20.4-12.3-36.3-12.3s-28.1,4.1-36.3,12.3c-13.8,13.9-15,28.8-14.9,44.2c0.1,41.3,7.6,68.1,22.4,79.6      c3.5,2.7,4.1,7.7,1.4,11.2c-2.7,3.5-7.7,4.1-11.2,1.4c-19.2-14.9-28.5-45-28.6-92.2c0-17.3,1.5-37.3,19.6-55.5      c11.3-11.3,27.3-17,47.6-17s36.3,5.7,47.6,17c18.2,18.2,19.7,38.2,19.6,55.5C323.1,192.7,302.4,224.6,256,224.6z"></path>
			</g>
		</g>
		<g id="XMLID_119_">
			<path class="st0" d="M256,290.4c-2,0-3.9-0.7-5.4-2.1l-38.6-35.8c-3.2-3-3.4-8.1-0.4-11.3c3-3.3,8.1-3.4,11.3-0.4l33.2,30.8     l33.3-30.8c3.2-3,8.3-2.8,11.3,0.4c3,3.2,2.8,8.3-0.4,11.3l-38.7,35.8C259.9,289.7,257.9,290.4,256,290.4z"></path>
		</g>
		<g id="XMLID_117_">
			<path class="st0" d="M285,126.7c-22.7,0-46.4-8-59.5-19.8c-3.3-3-3.6-8-0.6-11.3c3-3.3,8-3.5,11.3-0.6     c15.8,14.2,53.6,21.6,75.2,10c3.9-2.1,8.7-0.6,10.8,3.3c2.1,3.9,0.6,8.7-3.3,10.8C309.1,124.3,297.2,126.7,285,126.7z"></path>
		</g>
		<g id="XMLID_107_">
			<g id="XMLID_116_">
				<path class="st0" d="M136,236.8c-4.4,0-8-3.6-8-8v-29c0-2.5,1.2-4.9,3.2-6.4c8.2-6.2,12.8-15.4,12.8-25.4v-24      c0-17.6-14.4-32-32-32s-32,14.4-32,32v24c0,10,4.7,19.3,12.8,25.4c2,1.5,3.2,3.9,3.2,6.4v29c0,4.4-3.6,8-8,8s-8-3.6-8-8v-25.2      c-10.2-9.1-16-21.9-16-35.6v-24c0-26.5,21.5-48,48-48s48,21.5,48,48v24c0,13.7-5.8,26.5-16,35.6v25.2      C144,233.2,140.4,236.8,136,236.8z"></path>
			</g>
			<g id="XMLID_114_">
				<path class="st0" d="M120,215.2c-3.7,0-7.1-2.6-7.8-6.4c-0.9-4.3,1.9-8.6,6.2-9.4c14.8-3,25.5-16.2,25.5-31.3c0-4.4,3.6-8,8-8      s8,3.6,8,8c0,22.7-16.1,42.5-38.3,47C121.1,215.1,120.6,215.2,120,215.2L120,215.2z"></path>
			</g>
			<g id="XMLID_112_">
				<path class="st0" d="M24,432c-4.4,0-8-3.6-8-8V287.5c0-22.4,13.3-42.6,33.8-51.4l35-15.2c2.8-1.2,6-0.7,8.3,1.2l19,15.5      l18.9-15.4c2.3-1.9,5.5-2.3,8.2-1.2l35,15c4.1,1.7,5.9,6.4,4.2,10.5s-6.4,6-10.5,4.2l-30.6-13.1l-20.2,16.5      c-2.9,2.4-7.2,2.4-10.1,0l-20.2-16.6l-30.5,13.3C41.5,257.1,32,271.5,32,287.5V424C32,428.4,28.4,432,24,432L24,432z"></path>
			</g>
			<g id="XMLID_110_">
				<path class="st0" d="M143,158.6c-16,0-31.2-5.5-44-15.9c-3.4-2.8-4-7.8-1.2-11.2c2.8-3.4,7.8-4,11.2-1.2      c10.2,8.3,22.3,12.4,34.9,12.3c-0.8-17-14.8-30.6-32-30.6c-17.6,0-32,14.4-32,32v5.9c0,4.4-3.6,8-8,8s-8-3.6-8-8V144      c0-26.5,21.5-48,48-48s48,21.5,48,48v5.6c0,3.9-2.9,7.3-6.8,7.9C149.5,158.1,146.3,158.6,143,158.6L143,158.6z"></path>
			</g>
			<g id="XMLID_108_">
				<path class="st0" d="M99.6,114.1c-2.3,0-4.6-1-6.2-2.9c-3.5-4.3-5.4-9.6-5.4-15.1c0-13.2,10.8-24,24-24s24,10.8,24,24      c0,5.5-1.9,10.8-5.3,15.1c-2.8,3.4-7.8,4-11.2,1.2c-3.4-2.8-4-7.8-1.2-11.2c0.8-1,1.8-2.7,1.8-5c0-4.4-3.6-8-8-8s-8,3.6-8,8      c0,2.3,1,4,1.8,5c2.8,3.4,2.3,8.5-1.1,11.2C103.2,113.5,101.4,114.1,99.6,114.1z"></path>
			</g>
		</g>
		<g id="XMLID_99_">
			<g id="XMLID_105_">
				<path class="st0" d="M424,236.8c-4.4,0-8-3.6-8-8v-29c0-2.5,1.2-4.9,3.2-6.4c8.2-6.2,12.8-15.4,12.8-25.4v-24      c0-17.6-14.4-32-32-32s-32,14.4-32,32v24c0,10,4.7,19.3,12.8,25.4c2,1.5,3.2,3.9,3.2,6.4v29c0,4.4-3.6,8-8,8s-8-3.6-8-8v-25.2      c-10.2-9.1-16-21.9-16-35.6v-24c0-26.5,21.5-48,48-48s48,21.5,48,48v24c0,13.7-5.8,26.5-16,35.6v25.2      C432,233.2,428.4,236.8,424,236.8z"></path>
			</g>
			<g id="XMLID_102_">
				<path class="st0" d="M408,215.2c-3.7,0-7.1-2.6-7.8-6.4c-0.9-4.3,1.9-8.6,6.2-9.4c14.8-3,25.5-16.2,25.5-31.3c0-4.4,3.6-8,8-8      s8,3.6,8,8c0,22.7-16.1,42.5-38.3,47C409.1,215.1,408.6,215.2,408,215.2L408,215.2z"></path>
			</g>
			<g id="XMLID_100_">
				<path class="st0" d="M488,432c-4.4,0-8-3.6-8-8V287.5c0-16-9.5-30.4-24.1-36.6l-30.6-13.3l-20.2,16.6c-2.9,2.4-7.2,2.4-10.1,0      l-20.2-16.5l-30.6,13.1c-4.1,1.7-8.8-0.1-10.5-4.2c-1.7-4.1,0.1-8.8,4.2-10.5l35-15c2.7-1.2,5.9-0.7,8.2,1.2l18.9,15.4l19-15.5      c2.3-1.9,5.5-2.4,8.3-1.2l35,15.2c20.5,8.8,33.8,28.9,33.8,51.3V424C496,428.4,492.4,432,488,432z"></path>
			</g>
		</g>
	</g>
</g>
</svg>
