<?xml version="1.0" encoding="UTF-8"?>
<!-- Generator: Adobe Illustrator 28.2.0, SVG Export Plug-In . SVG Version: 6.00 Build 0)  -->
<svg xmlns="http://www.w3.org/2000/svg" xmlns:xlink="http://www.w3.org/1999/xlink" version="1.1" id="Capa_1" x="0px" y="0px" viewBox="0 0 512 512" style="enable-background:new 0 0 512 512;" xml:space="preserve">
<style type="text/css">
	.st0{fill:#EFCB68;}
</style>
<g>
	<path class="st0" d="M407.6,186.5c1.4,0.7,2.9,1,4.4,1c1.6,0,3.1-0.4,4.5-1.1c8-4.2,34-19.3,34.3-40.2c0.4-12.5-10.9-25.4-25-25.2   c-4.9,0-9.7,1.4-13.8,4.1c-4-2.6-8.7-4.1-13.6-4.1c-13-0.1-24.9,11.3-25.2,24.9C372.7,167.6,399.4,182.5,407.6,186.5L407.6,186.5z    M398.3,136.1L398.3,136.1c2.6,0,5.1,1,7,2.8c0,0,0,0,0,0c3.8,3.5,9.7,3.5,13.4,0c1.9-1.8,4.4-2.8,7.1-2.8c4,0.1,9.8,3.3,10,9.9   c-0.1,9.9-14.1,20.4-23.9,25.9c-9.9-5.3-23.9-15.5-23.7-25.6C388.3,140.9,393,136.1,398.3,136.1L398.3,136.1z"></path>
	<path class="st0" d="M95.4,186.5c1.4,0.7,2.9,1,4.3,1c1.6,0,3.1-0.4,4.5-1.1c8-4.2,34-19.3,34.3-40.2c0.4-12.5-10.9-25.4-25-25.2   c-4.9,0-9.7,1.4-13.8,4.1c-4.1-2.7-8.9-4.1-13.8-4.1c-13.5,0.1-24.7,11.3-25,24.9C60.6,167.6,87.3,182.5,95.4,186.5L95.4,186.5z    M86.1,136.1L86.1,136.1c2.6,0,5.1,1,7,2.8c0,0,0,0,0,0c3.8,3.5,9.7,3.5,13.4,0c1.9-1.8,4.4-2.8,7.1-2.8c4,0.1,9.8,3.3,10,9.9   c-0.1,9.9-14.1,20.4-23.9,25.9c-9.9-5.3-23.9-15.5-23.7-25.6C76.1,140.9,80.9,136.1,86.1,136.1z"></path>
	<path class="st0" d="M48,209.7h24.1c0.9,0,1.7,0.3,2.3,0.9l16.3,16.3c2.5,2.5,5.8,3.7,9.1,3.7c3.3,0,6.5-1.2,9-3.7l16.7-16.4   c0.6-0.6,1.4-0.9,2.3-0.9h23.8c14.8,0,26.8-12,26.8-26.8v-28.1c3.6,1.3,7.6,2,11.6,2h32.3c2.5,0,4.8,1.1,6.4,2.9l16.3,18.6   c2.8,3.2,6.9,5.1,11.2,5.1h0.1c4.3,0,8.3-1.8,11.2-5l16.7-18.7c1.6-1.8,4-2.9,6.4-2.9h32c3.7,0,7.2-0.6,10.6-1.7v27.8   c0,14.8,12,26.8,26.8,26.8h24.1c0.9,0,1.7,0.3,2.3,0.9l16.3,16.3c2.5,2.5,5.8,3.7,9.1,3.7c3.3,0,6.5-1.2,9-3.7l16.7-16.4   c0.6-0.6,1.4-0.9,2.3-0.9h23.8c14.8,0,26.8-12,26.8-26.8v-69.6c0-14.8-12-26.8-26.8-26.8H357.1V34.3c0-18.9-15.4-34.3-34.3-34.3   h-61.1c-4.1,0-7.5,3.4-7.5,7.5s3.4,7.5,7.5,7.5h61.1c10.6,0,19.3,8.7,19.3,19.3v88.1c0,10.7-8.7,19.3-19.3,19.3h-32   c-6.7,0-13.1,2.9-17.6,7.9l-16.8,18.7l-16.3-18.6c-4.5-5.1-10.9-8-17.7-8h-32.3c-10.7,0-19.3-8.7-19.3-19.3V34.3   c0-10.6,8.7-19.3,19.3-19.3h36.6c4.1,0,7.5-3.4,7.5-7.5S230.8,0,226.7,0h-36.6c-18.9,0-34.3,15.4-34.3,34.3v52.1H48   c-14.8,0-26.8,12-26.8,26.8v69.6C21.2,197.6,33.2,209.7,48,209.7z M463.8,101.5c6.5,0,11.8,5.3,11.8,11.8v69.6   c0,6.5-5.3,11.8-11.8,11.8h-23.8c-4.8,0-9.4,1.9-12.8,5.2L412,214.8L397.2,200c-3.4-3.4-8-5.3-12.9-5.3h-24.1   c-6.5,0-11.8-5.3-11.8-11.8v-37.5c5.4-6.1,8.7-14.1,8.7-22.9v-21L463.8,101.5L463.8,101.5z M36.2,113.3c0-6.5,5.3-11.8,11.8-11.8   h107.7v21c0,8.2,2.9,15.7,7.7,21.6v38.8c0,6.5-5.3,11.8-11.8,11.8h-23.8c-4.8,0-9.4,1.9-12.8,5.2l-15.1,14.9L85,200   c-3.4-3.4-8-5.3-12.9-5.3H48c-6.5,0-11.8-5.3-11.8-11.8L36.2,113.3L36.2,113.3z"></path>
	<path class="st0" d="M200.9,70.7c-0.6,30.9,38.6,52.6,50.6,58.6c1.5,0.8,3.2,1.1,4.9,1.1c1.8,0,3.5-0.4,5.1-1.2   c11.7-6.1,50-28.4,50.5-58.2c0.6-17.5-15.4-34.9-34.4-34.5c-7.7,0-15.1,2.5-21.1,7.1c-6.1-4.7-13.4-7.1-21.1-7.1   C216.7,36.6,201.3,52,200.9,70.7L200.9,70.7z M235.4,51.5c0,0,0.1,0,0.1,0c4.9,0,9.7,1.9,13.3,5.3v0c4.2,4,10.9,4,15.1,0   c3.7-3.4,8.5-5.3,13.6-5.3c9.2-0.2,19.6,8.2,19.4,19.3c-0.2,16.6-21.6,33.9-40.6,44.2c-19.3-9.9-40.8-26.9-40.4-43.9   C216.1,60.5,225,51.5,235.4,51.5z"></path>
	<path class="st0" d="M493.9,454.3V345c0-45-36.6-81.5-81.5-81.5c-12.9,0-25.8,3.1-37.2,9c-3.7,1.9-5.1,6.4-3.2,10.1   c1.9,3.7,6.4,5.1,10.1,3.2c9.4-4.9,19.7-7.3,30.4-7.3c36.7,0,66.5,29.9,66.5,66.5v96c-0.2-0.1-0.4-0.2-0.6-0.3h0l-37.8-15.6v-14.7   c14.4-14.4,25.5-37.5,25.5-58.8c0-27.4-12.2-48.9-32.6-57.6c-1.9-0.8-3.9-0.8-5.8,0c-1.3,0.6-3.7,2-4.4,5.3   c-4.5,20.6-20.8,36.8-41.4,41.2l-17.2,3.7c-2.9,0.6-5.9,4-5.9,8.8c0.5,21.1,11.4,43.4,25.5,57.4v14.6l-29.8,12.3   c-2.4-3-5.3-5.6-8.5-7.7V345c0-13.7,4.2-26.9,12-38.2c2.4-3.4,1.6-8.1-1.8-10.4c-3.4-2.4-8.1-1.6-10.4,1.8   c-9.6,13.7-14.7,29.9-14.7,46.8v77.8l-41-16.9v-28.5c18.8-15.2,29.9-42.6,32-69.5c9.8-7.1,15.6-21.3,18.7-32.8   c2.2-7.8,0.8-16.2-3.7-22.9c-2.8-4.3-6.8-7.6-11.3-9.7c0.5-2.5,0.6-5.1,0.3-7.6c-1.2-13.8-12.1-24.6-25.9-25.8   c-5.1-0.4-10.2,0.5-14.8,2.6c-5.5-10.6-16.6-17.8-29.3-17.8c-5.6,0-11.1,1.4-15.9,4.1c-5-3.9-11.1-6.1-17.6-6.1   c-12.7,0-23.4,8.1-27.1,19.7c-17.5,3.3-30.4,18.5-30.4,36.8c0,8.4,2.8,16.4,7.9,23c-0.1,4.2-0.1,12,1.3,19.4   c2.6,14,11.9,21.3,17.5,24.6c0.7,4.9,1.6,9.8,2.9,14.5c0.9,2.8,4.5,6.6,9.2,5.4c4-1,6.4-5.1,5.4-9.2c-1.3-5.1-2.3-10.3-2.9-15.6   c-0.3-2.9,0.8-4.2,7.3-7.4c4.4-2.1,10.1-4.8,13.7-10.4c14.9,1.7,31.6-6.7,39.8-19.4c5.1,3.3,12.8,6.3,20.9,5.5   c3.8,8.2,9.2,11.9,13.4,14.8c4.5,3.1,5.8,4,5.9,9.7c-1.6,35.1-20.9,71.2-50.8,71.2c-16.5,0-27.6-10.5-33.9-19.3   c-2.4-3.4-7.1-4.1-10.5-1.7c-3.4,2.4-4.1,7.1-1.7,10.5c3.8,5.3,8,9.7,12.6,13.4v28.4c-12.4,5.1-37.6,15.5-49.7,20.5   c-6,2.5-11.1,6.4-15,11.2l-30.2-12.4v-23.1c10.6-9.4,19.6-23.1,24.3-38.1c2.1-0.3,4.1-1.5,5.3-3.4c7.8-12.2,22.8-49.1-1.2-73.4   c-9.4-9.6-22.7-11.6-33.7-9.5c-0.5-1-1-2-1.6-2.9c-10.1-15.8-36.3-18-59.6-5c-3.6,2-4.9,6.6-2.9,10.2c2,3.6,6.6,4.9,10.2,2.9   c17.5-9.7,34.6-7.8,39.7,0c2.1,3.3,2.2,8.3,0.4,13.8c-2.8,8.1-10.7,18.7-24.6,23.7c-16,5.8-27.1,15-33.9,22.2   c-2.8-9.9-4.4-24-0.6-36.9c1.2-4-1-8.1-5-9.3c-4-1.2-8.1,1-9.3,5c-6.9,23-0.1,49.3,6.6,59.8c1.2,1.9,3.2,3.1,5.4,3.4   c4.8,14.7,13.7,28.2,24.1,37.4v23.1c-0.7,0.3-37.5,15.4-38.2,15.8c-12,5.1-19.7,16.8-19.7,29.9v23.6c0,9.7,7.9,17.5,17.5,17.5   h449.8c9.7,0,17.5-7.9,17.5-17.5v-23.6C498.4,464.9,496.8,459.2,493.9,454.3L493.9,454.3z M299.8,268.3c-0.6-2-1.9-3.6-3.7-4.6   s-3.9-1.2-5.9-0.5c-1.7,0.6-3.5,0.8-5.3,0.8c-5.6,0-10.9-2.8-14.1-7.5c-1.6-2.4-4.4-3.6-7.2-3.2c-2.8,0.4-5.2,2.4-6.1,5.1   c-3.8,11.7-14.7,19.6-27.1,19.6c-1.4,0-4.8-0.5-6.6-0.9c-4-0.8-7.9,1.8-8.7,5.8c-0.6,2.9-2.9,4.3-8.2,6.8c-4,1.9-9.2,4.4-12.6,9.2   c-2.4-2.4-4.6-5.9-5.6-10.7c-1.6-8.7-0.9-18.6-0.9-18.7c0.2-2.1-0.6-4.1-2-5.7c-3.9-4.2-6-9.6-6-15.3c0-12.2,9.6-22.1,21.8-22.5   c3.8-0.1,6.9-3,7.2-6.8c0.7-7,6.4-12.2,13.4-12.2c4.2,0,8.2,2,10.7,5.4c1.3,1.7,3.1,2.7,5.2,2.9c2.1,0.2,4.1-0.4,5.7-1.8   c3.3-2.9,7.5-4.5,11.8-4.5c9.2,0,16.9,6.9,17.9,15.9c0.3,3,2.4,5.5,5.3,6.3c2.9,0.9,6-0.1,7.9-2.4c2.9-3.5,7.1-5.2,11.6-4.8   c6.4,0.6,11.6,5.8,12.2,12.2c0.2,2.7-0.3,5.4-1.6,7.7c-1.2,2.2-1.2,4.9-0.1,7.1s3.4,3.7,5.9,4c3.3,0.3,6.6,1.9,9.2,5.5   c2.1,3.1,2.7,7,1.7,10.6c-2.1,7.6-4.7,13.9-7.6,18.4c-2.5-4-5.9-6.3-8.8-8.3C305.3,278.3,301.9,276,299.8,268.3L299.8,268.3z    M384.9,355.4c23.1-4.9,41.9-21.4,50.1-43.1c10.2,8,16.1,22.1,16.1,39.4c0,26.9-23.4,58.1-38.7,58.1c-14.2,0-35.3-26.5-38.3-52.1   L384.9,355.4z M242.9,497c-2.8-25.8-12.5-50.8-27.9-71.7l13.5-5.5c7.6,6.8,17.5,10.6,27.8,10.6h0c10.3,0,20.2-3.8,27.8-10.6   l13.2,5.5c-15.5,20.9-25.4,45.9-28.2,71.7H242.9z M311.6,431.2l22.1,9.1c8.5,3.5,13.9,11.7,13.9,20.8V497h-63.5   C287.1,473.1,296.7,450.1,311.6,431.2z M256.2,389.6c6.6,0,12.8-1.2,18.5-3.4V408c-5,4.7-11.6,7.4-18.5,7.4c0,0,0,0,0,0   c-6.9,0-13.6-2.7-18.5-7.4v-21.8C243.5,388.4,249.7,389.6,256.2,389.6L256.2,389.6z M149.8,497h-13.1l13.1-15.2V497z M149.9,458.7   l-33,38.3H82.8l-34.4-46l28.9-11.9c6.2,5.2,14.1,8.1,22.4,8.1h0c8.2,0,16.1-2.9,22.4-8.1l29.1,12   C150.5,453.5,150,456.1,149.9,458.7L149.9,458.7z M145.5,297.8c13.1,13.2,8.9,33.3,3.8,45.8c-4.9-4.9-12-11.1-20.5-16.6   c-5.4-3.4-9.7-8-12.3-12.9c2.8-3.9,5-8.1,6.5-12.6c1-3,1.6-6,1.9-8.9C131,291.3,139.7,291.9,145.5,297.8L145.5,297.8z M60,354.1   c5.3-5.9,14.8-14.4,29.3-19.6c6.1-2.2,11.6-5.3,16.5-9.2c3.8,5.5,8.8,10.4,14.9,14.3c7.7,5,14.2,10.7,18.5,15.1   c-5.8,24.6-26,45.1-39.5,45.1C86.1,399.8,65.6,379,60,354.1L60,354.1z M99.7,414.8c4.3,0,8.8-1,13.2-2.9v15.3   c-3.6,3.2-8.3,5-13.2,5c0,0,0,0,0,0c-4.9,0-9.5-1.8-13.2-5v-15.3C90.9,413.8,95.3,414.8,99.7,414.8L99.7,414.8z M28.6,494.5v-23.6   c0-5.2,2.3-10,6-13.2L64,497H31.1C29.7,497,28.6,495.9,28.6,494.5z M164.8,461.1c0-9.2,5.5-17.3,13.9-20.8l21.9-9   c14.9,18.9,24.3,41.9,27.2,65.7h-63L164.8,461.1L164.8,461.1z M362.7,497v-35.9c0-3.5-0.5-7-1.4-10.2l23-9.5   c0.3,18.9,2,38.8,12.6,55.6H362.7z M399.2,430.2v-8.7c4.4,2.1,8.8,3.3,13.2,3.3c4.3,0,8.8-1.2,13.2-3.3c0,0,0,7.9,0,8.7   c0,22.5,0,45.7-13.2,62.8C399.2,476,399.2,452.8,399.2,430.2C399.2,430.2,399.2,430.2,399.2,430.2L399.2,430.2z M483.4,494.5   c0,1.4-1.1,2.5-2.5,2.5h-53c10.5-16.8,12.3-36.7,12.6-55.6l32.1,13.2h0c6.6,2.7,10.8,9.1,10.8,16.2L483.4,494.5z"></path>
</g>
</svg>
