<?xml version="1.0" encoding="UTF-8"?>
<!-- Generator: Adobe Illustrator 28.2.0, SVG Export Plug-In . SVG Version: 6.00 Build 0)  -->
<svg xmlns="http://www.w3.org/2000/svg" xmlns:xlink="http://www.w3.org/1999/xlink" version="1.1" id="Outline" x="0px" y="0px" viewBox="0 0 512 512" style="enable-background:new 0 0 512 512;" xml:space="preserve">
<style type="text/css">
	.st0{fill:#EFCB68;}
</style>
<g>
	<path class="st0" d="M494,402.7l-70.5-79.3c-2.9-3.3-8-3.6-11.3-0.7c-3.3,2.9-3.6,8-0.7,11.3l57.3,64.5l-80.2-6.2l-25.3-39.7   c2.4-2.3,5.2-4.2,8.4-5.3c11-4,19.6-12.6,23.5-23.5c1.6-4.5,4.6-8.4,8.5-11.2c9.6-6.7,15.7-17.2,16.7-28.8c0.4-4.8,2.3-9.3,5.4-13   c7.5-8.9,10.7-20.7,8.6-32.2c-0.8-4.7-0.2-9.6,1.8-13.9c5-10.6,5-22.7,0-33.3c-2-4.4-2.7-9.2-1.8-13.9c2.1-11.5-1.1-23.2-8.6-32.2   c-3.1-3.7-5-8.2-5.4-13c-1-11.6-7.1-22.2-16.6-28.8c-3.2-2.2-5.9-5.4-7.6-9.2c-1.9-4-6.6-5.7-10.7-3.8c-4,1.9-5.7,6.7-3.8,10.7   c3,6.3,7.4,11.6,12.9,15.5c5.7,4,9.3,10.2,9.9,17.1c0.7,8.1,3.8,15.7,9.1,21.9c4.5,5.3,6.3,12.2,5.1,19c-1.4,8-0.4,16.2,3.1,23.5   c2.9,6.3,2.9,13.4,0,19.7c-3.5,7.4-4.5,15.5-3.1,23.5c1.2,6.8-0.6,13.7-5.1,19c-5.2,6.2-8.4,13.8-9.1,21.9   c-0.6,6.9-4.2,13.1-9.9,17.1c-6.7,4.7-11.7,11.2-14.4,18.8c-2.4,6.5-7.4,11.6-13.9,13.9c-7.7,2.8-14.2,7.8-18.8,14.4   c-4,5.7-10.2,9.3-17.1,9.9c-8.1,0.7-15.7,3.8-21.9,9.1c-5.3,4.5-12.2,6.3-19,5.1c-8-1.4-16.2-0.4-23.5,3.1   c-6.3,2.9-13.4,2.9-19.7,0c-7.4-3.5-15.5-4.5-23.5-3.1c-6.8,1.2-13.8-0.6-19-5.1c-6.2-5.2-13.8-8.4-21.9-9.1   c-6.9-0.6-13.1-4.2-17.1-9.9c-4.6-6.7-11.2-11.7-18.8-14.5c-6.5-2.4-11.6-7.4-13.9-13.9c-2.8-7.7-7.8-14.2-14.5-18.8   c-5.7-4-9.3-10.2-9.9-17.1c-0.7-8.1-3.8-15.7-9.1-21.9c-4.5-5.3-6.3-12.2-5.1-19c1.4-8,0.4-16.2-3.1-23.5c-2.9-6.3-2.9-13.4,0-19.7   c3.5-7.4,4.5-15.5,3.1-23.5c-1.2-6.8,0.6-13.7,5.1-19c5.2-6.2,8.4-13.8,9.1-21.9c0.6-6.9,4.2-13.1,9.9-17.1   c6.7-4.7,11.7-11.2,14.4-18.8c2.4-6.5,7.4-11.6,13.9-13.9c7.7-2.8,14.2-7.8,18.8-14.4c4-5.7,10.2-9.3,17.1-9.9   c8.1-0.7,15.7-3.8,21.9-9.1c5.3-4.4,12.2-6.3,19-5.1c8,1.4,16.2,0.4,23.5-3.1c6.3-2.9,13.4-2.9,19.7,0c7.4,3.5,15.5,4.5,23.5,3.1   c6.8-1.2,13.8,0.6,19,5.1c6.2,5.2,13.8,8.4,21.9,9.1c6.9,0.6,13.1,4.2,17.1,9.9c3.8,5.5,9.2,10,15.5,13c4,1.9,8.8,0.2,10.7-3.8   c1.9-4,0.2-8.8-3.8-10.7c-3.8-1.8-6.9-4.4-9.2-7.6c-6.7-9.6-17.2-15.6-28.8-16.6c-4.8-0.4-9.3-2.3-13-5.4   c-8.9-7.5-20.6-10.7-32.2-8.6c-4.7,0.8-9.6,0.2-13.9-1.8c-10.6-5-22.7-5-33.3,0c-4.4,2-9.2,2.7-13.9,1.8   c-11.5-2.1-23.2,1.1-32.2,8.6c-3.7,3.1-8.2,5-13,5.4c-11.6,1-22.1,7.1-28.8,16.6c-2.8,4-6.6,6.9-11.2,8.6   c-11,4-19.6,12.6-23.5,23.5c-1.6,4.5-4.6,8.4-8.6,11.2c-9.6,6.7-15.7,17.2-16.6,28.8c-0.4,4.8-2.3,9.3-5.4,13   c-7.5,8.9-10.7,20.7-8.6,32.2c0.8,4.7,0.2,9.6-1.8,13.9c-5,10.6-5,22.7,0,33.3c2,4.4,2.7,9.2,1.8,13.9c-2.1,11.5,1.1,23.2,8.6,32.2   c3.1,3.7,5,8.2,5.4,13c0.8,9.1,4.7,17.5,10.9,23.9l-84.4,95c-2.2,2.4-2.6,5.9-1.2,8.9s4.5,4.7,7.8,4.4l98.4-7.6l8.9,19.5   c1.3,2.9,4.2,4.7,7.3,4.7c1.1,0,2.2-0.2,3.3-0.7c4-1.8,5.8-6.6,4-10.6l-9.4-20.7l22.9-36c5.8,4.4,12.8,7.2,20.3,7.8   c4.8,0.4,9.3,2.3,13,5.4c3.2,2.7,6.8,4.8,10.6,6.4l-36,84l-8.1-17.8c-1.8-4-6.6-5.8-10.6-4c-4,1.8-5.8,6.6-4,10.6l15.6,34.2   c1.3,2.8,4.1,4.7,7.3,4.7h0.1c3.2,0,6-1.9,7.3-4.8L220,387c1.8-0.1,3.6-0.2,5.4-0.5c4.8-0.8,9.6-0.2,13.9,1.8   c5.3,2.5,11,3.7,16.6,3.7s11.4-1.2,16.6-3.7c4.4-2,9.2-2.7,13.9-1.8c1.8,0.3,3.6,0.5,5.4,0.5l44.6,104.2c1.2,2.9,4.1,4.8,7.3,4.8   h0.1c3.1,0,6-1.8,7.3-4.7l37.7-82.9l98.4,7.6c3.4,0.3,6.3-1.5,7.8-4.4C496.6,408.6,496.2,405.1,494,402.7L494,402.7z M114.1,318.6   c1.1,1.6,2,3.3,2.6,5.1c4,11,12.6,19.6,23.5,23.5c3.2,1.2,6,3,8.4,5.3l-25.3,39.7l-80.3,6.2L114.1,318.6z M344.2,468.2l-36-84   c3.8-1.5,7.3-3.6,10.5-6.3c3.7-3.1,8.2-5,13-5.4c7.5-0.6,14.5-3.4,20.3-7.8l22.9,36L344.2,468.2z"></path>
	<path class="st0" d="M161.2,326.7c27.2,21.8,60,33.3,94.8,33.3c83.8,0,152-68.2,152-152S339.8,56,256,56s-152,68.2-152,152   c0,34.8,11.5,67.6,33.3,94.8c2.8,3.5,7.8,4,11.2,1.2c3.4-2.8,4-7.8,1.2-11.2C130.3,268.4,120,239.1,120,208c0-75,61-136,136-136   s136,61,136,136s-61,136-136,136c-31.1,0-60.4-10.3-84.8-29.8c-3.5-2.8-8.5-2.2-11.2,1.2C157.2,318.9,157.7,323.9,161.2,326.7z"></path>
	<path class="st0" d="M168,176c-4.4,0-8,3.6-8,8v88c0,4.4,3.6,8,8,8h32c4.3,0,7.8-3.4,7.9-7.7c9.8,0.8,19.4,4.2,27.3,10.1   c11.7,8.8,26.2,13.6,40.8,13.6h51.1c12.1,0,22.7-8.6,24.5-20c1.1-7-0.8-14.1-5.4-19.5c-0.1-0.2-0.3-0.3-0.4-0.5   c3.8-4.3,6.1-9.9,6.1-16c0-6.1-2.3-11.8-6.1-16c3.8-4.2,6.1-9.9,6.1-16c0-6.1-2.3-11.7-6.1-16c0.1-0.2,0.3-0.3,0.4-0.5   c4.6-5.4,6.5-12.5,5.4-19.5c-1.9-11.4-12.4-20-24.5-20H301l4.7-9.5c5.9-11.8,5.3-25.5-1.6-36.6S285.2,88,272,88   c-3,0-5.8,1.7-7.2,4.4l-25.4,50.7c-2.7,5.5-8.2,8.8-14.3,8.8H208c0-4.4-3.6-8-8-8h-32c-4.4,0-8,3.6-8,8s3.6,8,8,8h24v104h-16v-80   C176,179.6,172.4,176,168,176L168,176z M225.2,168c12.2,0,23.2-6.8,28.6-17.7l22.9-45.8c5.7,1.2,10.6,4.7,13.7,9.8   c4,6.4,4.3,14.3,0.9,21.1l-10.5,21.1c-1.2,2.5-1.1,5.4,0.4,7.8s4,3.8,6.8,3.8h39.1c4.3,0,8.1,2.9,8.7,6.6c0.4,2.4-0.2,4.8-1.8,6.6   c-1.5,1.8-3.8,2.8-6.1,2.8c-4.4,0-8,3.6-8,8s3.6,8,8,8c4.4,0,8,3.6,8,8s-3.6,8-8,8c-4.4,0-8,3.6-8,8s3.6,8,8,8c4.4,0,8,3.6,8,8   s-3.6,8-8,8c-4.4,0-8,3.6-8,8s3.6,8,8,8c2.4,0,4.6,1,6.1,2.8c1.5,1.8,2.2,4.2,1.8,6.6c-0.6,3.7-4.4,6.6-8.7,6.6H276   c-11.2,0-22.3-3.7-31.2-10.4c-10.6-8-23.6-12.7-36.8-13.5V168H225.2z"></path>
</g>
</svg>
