<?xml version="1.0" encoding="UTF-8"?>
<svg xmlns="http://www.w3.org/2000/svg" id="katman_2" data-name="katman 2" viewBox="0 0 211.02 241.27">
  <defs>
    <style>
      .cls-1 {
        fill: #1d1d1b;
        stroke-width: 0px;
      }
    </style>
  </defs>
  <g id="Layer_1" data-name="Layer 1">
    <g>
      <path class="cls-1" d="M7.4,134.21c3.08-27.82,10.2-50.23,19.53-68.27.24-.46.47-.91.7-1.36-11.02,12.04-19.41,26.83-23.95,43.68-4.79,17.71-4.75,35.56-.74,52.21.1-.37.18-.73.27-1.11,1.71-7.21,3.12-15.54,4.19-25.16Z"></path>
      <path class="cls-1" d="M117.06,6.9c-14.16,5.03-28.67,13.52-40.98,27.55-.14.16-.27.33-.42.49-13.69,15.84-24.58,38.65-29.01,71.38-1.72,12.83-2.47,27.15-1.98,43.19,1.02,34.47-2.78,54.63-7.78,66.4,8.24,7.07,17.68,12.94,28.08,17.25,2.17-4.1,3.87-9.5,4.93-16.48,1.18-7.57,1.6-17.03,1.05-28.71-.5-11.32-1.94-24.74-4.51-40.62-4.2-26.18-3.52-47.65.51-65.27,5.2-22.91,15.98-39.3,28.87-51.04.15-.12.26-.25.41-.38,11.42-10.32,24.49-17,36.67-21.33.63-.22,1.25-.44,1.88-.65,22.83-7.74,42.35-7.3,42.35-7.3,0,0-26.73-5.04-56.18,4.23-1.28.41-2.59.84-3.88,1.3Z"></path>
      <path class="cls-1" d="M34.08,136.42c-.02-29.21,2.55-61.38,26.87-95.89.11-.19.26-.37.41-.56,2.26-3.18,4.67-6.37,7.32-9.59-.72.44-49.68,16.44-60.03,145.11-.03.35-.13,1.64-.13,1.64.14.54.39,1.02.39,1.02,4.5,10.24,10.62,19.73,18.09,28.08,9.08-20.73,7.09-44.14,7.08-69.81Z"></path>
      <path class="cls-1" d="M110.94,26.39c-3.52,4.01-22.06,23.55-30.14,47.86-9.46,28.42-3.92,57.18.2,85.53,2.5,17.29,4.71,33.91,3.29,48.76-1.12,11.78-3.08,21.2-6.23,28.46-.1.18-.16.36-.23.53.05.02.11.04.19.06,7.68,2.08,15.39,3.24,23.03,3.57,4.23.18,8.4.1,12.54-.21,43.29-3.34,81.78-33.39,93.74-77.7,15.19-56.24-18.09-114.15-74.35-129.34-6.02-1.63-9.03-2.34-13.56-2.73-.15.08-12.44,39.61-12.44,39.61,6.22-.62,11.45-.39,17.26,1.06,4.46,1.11,8.66,3.14,12.72,5.31,5.06,2.75,9.81,6.11,14.09,10.05,4.16,3.69,7.41,8.25,10.53,12.81,8.66,13.85,12.15,30.99,9.09,47.08-.1.79-.24,1.57-.33,2.36-2.79,11.59-7.1,23.95-16.57,31.21-54.96,42.18-90.59-67.79-48.92-144.22,1.87-3.42,3.33-5.52,6.07-10.06Z"></path>
    </g>
  </g>
</svg>
