<?xml version="1.0" encoding="UTF-8"?>
<svg xmlns="http://www.w3.org/2000/svg" id="katman_2" data-name="katman 2" viewBox="0 0 512 512">
  <defs>
    <style>
      .cls-1 {
        fill: #efcb68;
        fill-rule: evenodd;
      }

      .cls-1, .cls-2 {
        stroke-width: 0px;
      }

      .cls-2 {
        fill: #000411;
      }
    </style>
  </defs>
  <g id="Layer_1" data-name="Layer 1">
    <rect class="cls-2" x="104" y="92" width="314" height="326"></rect>
    <path class="cls-1" d="M256,0c141.39,0,256,114.61,256,256s-114.61,256-256,256S0,397.39,0,256,114.61,0,256,0ZM190.6,330.39c0,5.43,4.39,9.84,9.83,9.85h34.72c5.44,0,9.85-4.41,9.85-9.85s-4.41-9.85-9.85-9.85h-34.7c-5.43,0-9.84,4.39-9.85,9.82v.02ZM192.79,198.53h-29.81v157.26h186.06v-157.26h-29.82v14.9c.05,5.44-4.31,9.89-9.74,9.94-5.44.05-9.89-4.31-9.94-9.74,0-.07,0-.13,0-.2v-14.9h-87.05v14.9c0,5.44-4.41,9.85-9.85,9.85s-9.85-4.41-9.85-9.85h0v-14.9ZM212.48,161.7v17.14h87.05v-17.14c-.12-24.04-19.7-43.43-43.74-43.32-23.88.11-43.2,19.44-43.32,43.32h0ZM331.19,393.81c9.85,0,17.84-7.99,17.84-17.84v-.48h-186.06v.48c0,9.85,7.99,17.83,17.84,17.84h150.38ZM180.81,413.5h150.38c20.72-.02,37.51-16.82,37.53-37.54v-187.28c0-5.43-4.39-9.84-9.82-9.85h-39.68v-17.14c-.01-34.91-28.32-63.21-63.24-63.19-34.9.01-63.18,28.3-63.19,63.19v17.14h-39.66c-5.43,0-9.84,4.39-9.85,9.82,0,0,0,.01,0,.02v187.28c.02,20.72,16.81,37.51,37.53,37.54h0Z"></path>
  </g>
</svg>
