<?xml version="1.0" encoding="UTF-8"?>
<!-- Generator: Adobe Illustrator 28.2.0, SVG Export Plug-In . SVG Version: 6.00 Build 0)  -->
<svg xmlns="http://www.w3.org/2000/svg" xmlns:xlink="http://www.w3.org/1999/xlink" version="1.1" id="Capa_1" x="0px" y="0px" viewBox="0 0 512 512" style="enable-background:new 0 0 512 512;" xml:space="preserve">
<style type="text/css">
	.st0{fill:#EFCB68;}
</style>
<g>
	<path class="st0" d="M126,166v46.1c-10.1,3.5-18.3,10.9-23,20.8l-19.8,42.4c-12.7,27.3-6.6,59.7,15.3,80.4l57.4,54.4V502   c0,5.5,4.5,10,10,10h45c5.5,0,10-4.5,10-10s-4.5-10-10-10h-35v-86.2c0-2.7-1.1-5.4-3.1-7.3l-60.6-57.3   c-15.7-14.8-20-37.9-10.9-57.4l19.8-42.4c4.8-10.3,16.8-14.3,26.6-9.7l98.8,46.1c-13.8,18.7-39.4,25.8-61.3,15.6L158,280.6   c-5-2.3-11-0.2-13.3,4.8c-2.3,5-0.2,11,4.8,13.3l27.2,12.7c11.1,5.2,23.7,7.5,36.6,6.2c21.1,22.8,32.7,52.3,32.7,83.5   c0,5.5,4.5,10,10,10s10-4.5,10-10c0-32.8-11-64-31.2-89.2c14.9-6.6,27.6-18.4,35-34.3c0,0,0,0,0,0c5,2.2,10.5,3.5,16.2,3.5   c8.9,0,17.2-2.9,23.8-7.9c6.4,13.5,20.2,22.9,36.2,22.9c6.2,0,12-1.4,17.2-3.9c-2.8,18-7.2,34.3-11.9,51.3   C343.8,371,336,399.5,336,436v56h-35c-5.5,0-10,4.5-10,10s4.5,10,10,10h45c5.5,0,10-4.5,10-10v-66c0-33.8,7.1-59.8,14.6-87.4   C378.2,321,386,292.5,386,256v-60c0-22.1-17.9-40-40-40c-8.9,0-17.2,2.9-23.8,7.9c-6.4-13.5-20.2-22.9-36.2-22.9   c-8.9,0-17.2,2.9-23.8,7.9c-6.4-13.5-20.2-22.9-36.2-22.9c-11.9,0-22.7,5.3-30,13.6c-7.3-8.3-18.1-13.6-30-13.6   C143.9,126,126,143.9,126,166L126,166z M326,196c0-11,9-20,20-20s20,9,20,20v60c0,11-9,20-20,20s-20-9-20-20V196z M266,181   c0-11,9-20,20-20s20,9,20,20v60c0,11-9,20-20,20s-20-9-20-20V181z M206,166c0-11,9-20,20-20s20,9,20,20v75c0,5.7,1.2,11.1,3.4,16   L206,236.8V166z M146,166c0-11,9-20,20-20s20,9,20,20v61.5l-29.8-13.9c-3.2-1.5-6.7-2.6-10.2-3.2V166z"></path>
	<path class="st0" d="M266,46V10c0-5.5-4.5-10-10-10s-10,4.5-10,10v36c0,5.5,4.5,10,10,10S266,51.5,266,46z"></path>
	<path class="st0" d="M171,78.8c4.8-2.8,6.4-8.9,3.7-13.7l-15-26c-2.8-4.8-8.9-6.4-13.7-3.7s-6.4,8.9-3.7,13.7l15,26   C160.1,79.9,166.2,81.6,171,78.8z"></path>
	<path class="st0" d="M90.1,127.3l-26-15c-4.8-2.8-10.9-1.1-13.7,3.7c-2.8,4.8-1.1,10.9,3.7,13.7l26,15c4.8,2.7,10.9,1.1,13.7-3.7   C96.5,136.2,94.9,130.1,90.1,127.3z"></path>
	<path class="st0" d="M354.7,75.1l15-26c2.8-4.8,1.1-10.9-3.7-13.7c-4.8-2.8-10.9-1.1-13.7,3.7l-15,26c-2.8,4.8-1.1,10.9,3.7,13.7   C345.8,81.5,351.9,79.9,354.7,75.1z"></path>
	<path class="st0" d="M431.9,144.7l26-15c4.8-2.8,6.4-8.9,3.7-13.7c-2.8-4.8-8.9-6.4-13.7-3.7l-26,15c-4.8,2.8-6.4,8.9-3.7,13.7   C421,145.8,427.1,147.4,431.9,144.7L431.9,144.7z"></path>
	<circle class="st0" cx="256" cy="502" r="10"></circle>
</g>
</svg>
