<?xml version="1.0" encoding="UTF-8"?>
<svg xmlns="http://www.w3.org/2000/svg" id="katman_2" data-name="katman 2" viewBox="0 0 878.39 305.43">
  <defs>
    <style>
      .cls-1, .cls-2 {
        stroke-width: 0px;
      }

      .cls-2 {
        fill: #1d1d1b;
      }
    </style>
  </defs>
  <g id="Layer_1" data-name="Layer 1">
    <g>
      <rect class="cls-1" x="1.77" y="290.8" width="209.24" height="2.45"></rect>
      <rect class="cls-1" x="666.81" y="290.8" width="211.57" height="2.45"></rect>
    </g>
    <g>
      <path class="cls-2" d="M257.17,290.82h-14.7v14h-3.08v-30.74h3.08v13.75h14.7v-13.75h2.93v30.74h-2.93v-14Z"></path>
      <path class="cls-2" d="M285.34,295.18h-13.56l-3.73,9.63h-3.1l11.89-30.74h3.63l11.79,30.74h-3.18l-3.74-9.63ZM278.53,276.97l-5.75,15.45h11.56l-5.81-15.45Z"></path>
      <path class="cls-2" d="M297.54,274.08h3.08v30.74h-3.08v-30.74Z"></path>
      <path class="cls-2" d="M316.33,277.11h-4.49v27.71h-2.93v-30.74h8.16c2.95,0,5.35.53,7.19,1.6,1.55.9,2.68,2.17,3.39,3.8.56,1.28.84,2.76.84,4.43,0,2.57-.77,4.67-2.3,6.29-1.31,1.38-3.03,2.26-5.16,2.66l7.52,11.98-3.62-.02-9.11-14.87c3.29,0,5.63-.4,7.02-1.2,1.63-.94,2.45-2.63,2.45-5.06,0-1.17-.17-2.15-.53-2.95-.49-1.11-1.33-1.96-2.51-2.55-1.43-.71-3.41-1.07-5.92-1.07Z"></path>
      <path class="cls-2" d="M358.18,277.11h-4.49v27.71h-2.93v-30.74h8.16c2.95,0,5.35.53,7.19,1.6,1.55.9,2.68,2.17,3.4,3.8.56,1.28.84,2.76.84,4.43,0,2.57-.77,4.67-2.3,6.29-1.31,1.38-3.03,2.26-5.16,2.66l7.52,11.98-3.62-.02-9.11-14.87c3.29,0,5.63-.4,7.02-1.2,1.63-.94,2.45-2.63,2.45-5.06,0-1.17-.18-2.15-.53-2.95-.49-1.11-1.33-1.96-2.51-2.55-1.43-.71-3.41-1.07-5.92-1.07Z"></path>
      <path class="cls-2" d="M394.2,277.11h-12.92v10.71h12.92v3.08h-12.92v10.98h12.92v2.93h-16v-30.74h16v3.04Z"></path>
      <path class="cls-2" d="M405.59,291.89v12.92h-3.02v-30.74h7.09c3.54,0,6.19.66,7.93,2,1.98,1.51,2.97,3.97,2.97,7.36,0,2.69-.96,4.72-2.87,6.1-2.18,1.57-5.66,2.36-10.46,2.36h-1.65ZM405.59,277.07v11.81h4.39c2.47,0,4.33-.57,5.57-1.71,1.12-1.04,1.69-2.51,1.69-4.41s-.57-3.33-1.73-4.2c-1.32-1-3.63-1.5-6.92-1.5h-2.99Z"></path>
      <path class="cls-2" d="M430.8,301.89h10.8v2.93h-13.87v-30.74h3.08v27.81Z"></path>
      <path class="cls-2" d="M465.06,295.18h-13.56l-3.73,9.63h-3.1l11.89-30.74h3.62l11.79,30.74h-3.18l-3.74-9.63ZM458.26,276.97l-5.75,15.45h11.56l-5.81-15.45Z"></path>
      <path class="cls-2" d="M505.49,282.05h-3.62c-.94-1.19-1.81-2.14-2.59-2.83-1-.88-2.07-1.55-3.21-2-1.27-.51-2.68-.76-4.24-.76-3.88,0-7.03,1.32-9.46,3.96-2.25,2.45-3.37,5.41-3.37,8.88,0,3.67,1.22,6.78,3.67,9.34,2.44,2.56,5.42,3.83,8.92,3.83,1.95,0,3.66-.36,5.12-1.07,1.66-.81,3.32-2.21,4.98-4.2h3.56c-1.24,2.53-3.05,4.53-5.44,6.01-2.39,1.47-5.08,2.21-8.05,2.21-2.33,0-4.62-.46-6.85-1.37-2.64-1.07-4.74-2.61-6.28-4.64-1.84-2.39-2.76-5.27-2.76-8.65,0-.18-.03-.47-.07-.86-.04-.39-.06-.69-.06-.89,0-2.32.56-4.61,1.67-6.88,1.26-2.56,3-4.58,5.21-6.07,2.57-1.73,5.6-2.59,9.07-2.59s6.2.88,8.73,2.63c2.17,1.5,3.87,3.48,5.1,5.92Z"></path>
      <path class="cls-2" d="M528.84,277.11h-12.92v10.71h12.92v3.08h-12.92v10.98h12.92v2.93h-16v-30.74h16v3.04Z"></path>
      <path class="cls-2" d="M540.59,277.64v27.18h-2.89v-30.74h4.49l10.62,26.69,10.55-26.69h4.48s0,30.74,0,30.74h-2.97v-27.18l-10.82,27.18h-2.68l-10.79-27.18Z"></path>
      <path class="cls-2" d="M592.2,277.11h-12.93v10.71h12.93v3.08h-12.93v10.98h12.93v2.93h-16v-30.74h16v3.04Z"></path>
      <path class="cls-2" d="M600.78,274.08h3.62s16.83,27.05,16.83,27.05l-.36-27.05h3.08v30.74h-3.63l-16.91-27.09.36,27.09h-3v-30.74Z"></path>
      <path class="cls-2" d="M645.38,277.11h-6.05v27.71h-3.08v-27.71h-6.14v-3.04h15.26v3.04Z"></path>
    </g>
    <g>
      <path class="cls-2" d="M7.4,134.21c3.08-27.82,10.2-50.23,19.53-68.27.24-.46.47-.91.7-1.36-11.02,12.04-19.41,26.83-23.95,43.68-4.79,17.71-4.75,35.56-.74,52.21.1-.37.18-.73.27-1.11,1.71-7.21,3.12-15.54,4.19-25.16Z"></path>
      <path class="cls-2" d="M117.06,6.9c-14.16,5.03-28.67,13.52-40.98,27.55-.14.16-.27.33-.42.49-13.69,15.84-24.58,38.65-29.01,71.38-1.72,12.83-2.47,27.15-1.98,43.19,1.02,34.47-2.78,54.63-7.78,66.4,8.24,7.07,17.68,12.94,28.08,17.25,2.17-4.1,3.87-9.5,4.93-16.48,1.18-7.57,1.6-17.03,1.05-28.71-.5-11.32-1.94-24.74-4.51-40.62-4.2-26.18-3.52-47.65.51-65.27,5.2-22.91,15.98-39.3,28.87-51.04.15-.12.26-.25.41-.38,11.42-10.32,24.49-17,36.67-21.33.63-.22,1.25-.44,1.88-.65,22.83-7.74,42.35-7.3,42.35-7.3,0,0-26.73-5.04-56.18,4.23-1.28.41-2.59.84-3.88,1.3Z"></path>
      <path class="cls-2" d="M34.08,136.42c-.02-29.21,2.55-61.38,26.87-95.89.11-.19.26-.37.41-.56,2.26-3.18,4.67-6.37,7.32-9.59-.72.44-49.68,16.44-60.03,145.11-.03.35-.13,1.64-.13,1.64.14.54.39,1.02.39,1.02,4.5,10.24,10.62,19.73,18.09,28.08,9.08-20.73,7.09-44.14,7.08-69.81Z"></path>
      <path class="cls-2" d="M110.94,26.39c-3.52,4.01-22.06,23.55-30.14,47.86-9.46,28.42-3.92,57.18.2,85.53,2.5,17.29,4.71,33.91,3.29,48.76-1.12,11.78-3.08,21.2-6.23,28.46-.1.18-.16.36-.23.53.05.02.11.04.19.06,7.68,2.08,15.39,3.24,23.03,3.57,4.23.18,8.4.1,12.54-.21,43.29-3.34,81.78-33.39,93.74-77.7,15.19-56.24-18.09-114.15-74.35-129.34-6.02-1.63-9.03-2.34-13.56-2.73-.15.08-12.44,39.61-12.44,39.61,6.22-.62,11.45-.39,17.26,1.06,4.46,1.11,8.66,3.14,12.72,5.31,5.06,2.75,9.81,6.11,14.09,10.05,4.16,3.69,7.41,8.25,10.53,12.81,8.66,13.85,12.15,30.99,9.09,47.08-.1.79-.24,1.57-.33,2.36-2.79,11.59-7.1,23.95-16.57,31.21-54.96,42.18-90.59-67.79-48.92-144.22,1.87-3.42,3.33-5.52,6.07-10.06Z"></path>
    </g>
    <polygon class="cls-2" points="239.39 36.3 269.62 36.3 388.63 166.93 388.63 36.3 428.34 36.3 428.34 232.05 388.65 232.05 279.1 107.83 279.1 228.6 239.39 229.03 239.39 36.3"></polygon>
    <polygon class="cls-2" points="456.44 36.3 486.67 36.3 605.68 166.93 605.68 36.3 645.38 36.3 645.38 232.05 605.7 232.05 496.15 107.83 496.15 228.6 456.44 229.03 456.44 36.3"></polygon>
    <path class="cls-2" d="M787.35,32.13h-20.44l-93.99,199.92h43.76l26.2-55.7h66.6l24.31,52.68h43.81l-90.24-196.9ZM754.54,136.15l20.97-44.42,20.46,44.42h-41.44Z"></path>
  </g>
</svg>
